# xmcd
#
# Track frame offsets:
#	150
#	12991
#	26477
#	43687
#	58799
#	68041
#	80716
#	95785
#	106536
#
# Disc length: 1594 seconds
#
# Revision: 2
# Processed by: cddbd v1.5.2PL0 Copyright (c) Steve Scherf et al.
# Submitted via: audiograbber 1.83.01
#
DISCID=6f063809
DTITLE=C.W. McCall - Roses For Mama
DYEAR=1977
DGENRE=Country
TTITLE0=I Dont Know And I Dont Care
TTITLE1=Livin Within My Means
TTITLE2=Old Glory
TTITLE3=Roses For Mama
TTITLE4=Take My Duds To The Junkman
TTITLE5=The Battle Of New Orleans
TTITLE6=The Gallopin Goose
TTITLE7=The Only Light
TTITLE8=Watch The Wildwood Flowers
EXTD=
EXTT0=
EXTT1=
EXTT2=
EXTT3=
EXTT4=
EXTT5=
EXTT6=
EXTT7=
EXTT8=
PLAYORDER=
